<svg xmlns="http://www.w3.org/2000/svg" version="1.1" xmlns:xlink="http://www.w3.org/1999/xlink" xmlns:svgjs="http://svgjs.dev/svgjs" width="128" height="128" viewBox="0 0 128 128"><g transform="matrix(0.5567567567567567,0,0,0.5567567567567567,28.388877774375665,12.333870967741937)"><svg viewBox="0 0 107 155" data-background-color="#ffffff" preserveAspectRatio="xMidYMid meet" height="185" width="128" xmlns="http://www.w3.org/2000/svg" xmlns:xlink="http://www.w3.org/1999/xlink"><g id="tight-bounds" transform="matrix(1,0,0,1,-0.031996021220152215,0.25)"><svg viewBox="0 0 107.06399204244032 154.5" height="154.5" width="107.06399204244032"><g><svg viewBox="0 0 107.06399204244032 154.5" height="154.5" width="107.06399204244032"><g><svg viewBox="0 0 107.06399204244032 154.5" height="154.5" width="107.06399204244032"><g id="textblocktransform"><svg viewBox="0 0 107.06399204244032 154.5" height="154.5" width="107.06399204244032" id="textblock"><g><svg viewBox="0 0 107.06399204244032 154.5" height="154.5" width="107.06399204244032"><g transform="matrix(1,0,0,1,0,0)"><svg width="107.06399204244032" viewBox="2 -36.82 25.51 36.82" height="154.5" data-palette-color="#755bb4"><path d="M20.02-15.09L19.29-17.65 10.3-17.65 10.3-2.93 23.9-2.93 25.66-7.25 27.51-7.25 26.71 0 2 0 2-2.08 5.71-2.64 5.71-34.18 2-34.74 2-36.82 25.63-36.82 26.2-29.57 24.05-29.57 22.73-33.86 10.3-33.86 10.3-20.58 19.29-20.58 20.02-23.17 21.75-23.17 21.75-15.09 20.02-15.09Z" opacity="1" transform="matrix(1,0,0,1,0,0)" fill="#755bb4" class="wordmark-text-0" data-fill-palette-color="primary" id="text-0"></path></svg></g></svg></g></svg></g></svg></g></svg></g><defs></defs></svg><rect width="107.06399204244032" height="154.5" fill="none" stroke="none" visibility="hidden"></rect></g></svg></g></svg>